<svg width="16" height="17" viewBox="0 0 16 17" fill="none" xmlns="http://www.w3.org/2000/svg">
<path d="M14 4.94376C13.8823 5.00471 13.7452 5.01644 13.6189 4.97635C13.4925 4.93627 13.3873 4.84767 13.3262 4.73001C12.849 3.7872 12.1266 2.99033 11.235 2.42314C11.1794 2.38809 11.1313 2.34245 11.0934 2.2888C11.0554 2.23516 11.0285 2.17457 11.0139 2.1105C10.9994 2.04643 10.9977 1.98012 11.0088 1.91538C11.0199 1.85063 11.0437 1.78871 11.0787 1.73314C11.1138 1.67757 11.1594 1.62946 11.2131 1.59153C11.2667 1.55361 11.3273 1.52662 11.3914 1.51211C11.4554 1.4976 11.5217 1.49585 11.5865 1.50697C11.6512 1.51808 11.7132 1.54184 11.7687 1.57689C12.8078 2.24222 13.6516 3.17162 14.2137 4.27001C14.2747 4.38771 14.2864 4.5248 14.2463 4.65114C14.2062 4.77747 14.1176 4.88273 14 4.94376ZM2.23185 5.00001C2.32345 4.99998 2.41328 4.97477 2.49153 4.92716C2.56979 4.87955 2.63346 4.81135 2.6756 4.73001C3.15285 3.7872 3.87523 2.99033 4.76685 2.42314C4.87907 2.35236 4.95857 2.2399 4.98787 2.1105C5.01718 1.9811 4.99388 1.84536 4.9231 1.73314C4.85232 1.62092 4.73986 1.54141 4.61046 1.51211C4.48106 1.48281 4.34532 1.50611 4.2331 1.57689C3.19397 2.24222 2.35021 3.17162 1.7881 4.27001C1.74862 4.34621 1.72942 4.43129 1.73235 4.51706C1.73527 4.60283 1.76022 4.6864 1.8048 4.75973C1.84938 4.83307 1.91208 4.89369 1.98687 4.93577C2.06166 4.97785 2.14603 4.99998 2.23185 5.00001ZM13.8631 11.4963C13.9517 11.6482 13.9986 11.8207 13.9992 11.9966C13.9998 12.1724 13.9541 12.3453 13.8665 12.4978C13.779 12.6503 13.6528 12.7771 13.5007 12.8652C13.3485 12.9534 13.1758 12.9999 13 13H10.45C10.3352 13.5652 10.0286 14.0733 9.5821 14.4382C9.13559 14.8032 8.57665 15.0025 7.99997 15.0025C7.42329 15.0025 6.86435 14.8032 6.41784 14.4382C5.97134 14.0733 5.66473 13.5652 5.54997 13H2.99997C2.82423 12.9997 2.65169 12.953 2.49973 12.8648C2.34776 12.7765 2.22173 12.6498 2.13435 12.4973C2.04696 12.3448 2.00129 12.172 2.00195 11.9963C2.00261 11.8205 2.04957 11.6481 2.1381 11.4963C2.70122 10.5244 2.99997 9.14251 2.99997 7.50001C2.99997 6.17393 3.52676 4.90216 4.46444 3.96448C5.40212 3.0268 6.67389 2.50001 7.99997 2.50001C9.32605 2.50001 10.5978 3.0268 11.5355 3.96448C12.4732 4.90216 13 6.17393 13 7.50001C13 9.14189 13.2987 10.5238 13.8631 11.4963ZM9.41372 13H6.58622C6.68981 13.2921 6.88135 13.545 7.13451 13.7239C7.38767 13.9027 7.69002 13.9987 7.99997 13.9987C8.30993 13.9987 8.61227 13.9027 8.86543 13.7239C9.11859 13.545 9.31013 13.2921 9.41372 13ZM13 12C12.335 10.8581 12 9.34439 12 7.50001C12 6.43915 11.5785 5.42173 10.8284 4.67159C10.0783 3.92144 9.06084 3.50001 7.99997 3.50001C6.93911 3.50001 5.92169 3.92144 5.17154 4.67159C4.4214 5.42173 3.99997 6.43915 3.99997 7.50001C3.99997 9.34501 3.66372 10.8588 2.99997 12H13Z" fill="white"/>
</svg>
