<svg width="16" height="17" viewBox="0 0 16 17" fill="none" xmlns="http://www.w3.org/2000/svg">
<path d="M14.5 13.5C14.5 13.6326 14.4473 13.7598 14.3536 13.8536C14.2598 13.9473 14.1326 14 14 14H2C1.86739 14 1.74021 13.9473 1.64645 13.8536C1.55268 13.7598 1.5 13.6326 1.5 13.5V3.5C1.5 3.36739 1.55268 3.24021 1.64645 3.14645C1.74021 3.05268 1.86739 3 2 3C2.13261 3 2.25979 3.05268 2.35355 3.14645C2.44732 3.24021 2.5 3.36739 2.5 3.5V9.39812L5.67063 6.625C5.7569 6.54947 5.86652 6.5059 5.9811 6.50157C6.09569 6.49725 6.20828 6.53244 6.3 6.60125L9.97563 9.35812L13.6706 6.125C13.7191 6.07704 13.7768 6.0395 13.8403 6.01467C13.9038 5.98985 13.9717 5.97827 14.0398 5.98065C14.1079 5.98303 14.1749 5.99931 14.2365 6.0285C14.2981 6.05769 14.3531 6.09917 14.398 6.15038C14.443 6.2016 14.4771 6.26148 14.4981 6.32633C14.5191 6.39119 14.5266 6.45965 14.5201 6.52752C14.5137 6.59538 14.4935 6.66122 14.4607 6.72097C14.4279 6.78073 14.3832 6.83314 14.3294 6.875L10.3294 10.375C10.2431 10.4505 10.1335 10.4941 10.0189 10.4984C9.90431 10.5028 9.79173 10.4676 9.7 10.3988L6.02437 7.64313L2.5 10.7269V13H14C14.1326 13 14.2598 13.0527 14.3536 13.1464C14.4473 13.2402 14.5 13.3674 14.5 13.5Z" fill="white"/>
</svg>
