<svg width="16" height="17" viewBox="0 0 16 17" fill="none" xmlns="http://www.w3.org/2000/svg">
<path d="M13.3538 4.64625L10.8538 2.14625C10.8073 2.09983 10.7521 2.06303 10.6914 2.03793C10.6307 2.01284 10.5657 1.99995 10.5 2H5.5C5.23478 2 4.98043 2.10536 4.79289 2.29289C4.60536 2.48043 4.5 2.73478 4.5 3V4H3.5C3.23478 4 2.98043 4.10536 2.79289 4.29289C2.60536 4.48043 2.5 4.73478 2.5 5V14C2.5 14.2652 2.60536 14.5196 2.79289 14.7071C2.98043 14.8946 3.23478 15 3.5 15H10.5C10.7652 15 11.0196 14.8946 11.2071 14.7071C11.3946 14.5196 11.5 14.2652 11.5 14V13H12.5C12.7652 13 13.0196 12.8946 13.2071 12.7071C13.3946 12.5196 13.5 12.2652 13.5 12V5C13.5001 4.93432 13.4872 4.86927 13.4621 4.80858C13.437 4.74788 13.4002 4.69272 13.3538 4.64625ZM10.5 14H3.5V5H8.29313L10.5 7.20687V12.49C10.5 12.4937 10.5 12.4969 10.5 12.5C10.5 12.5031 10.5 12.5063 10.5 12.51V14ZM12.5 12H11.5V7C11.5001 6.93432 11.4872 6.86927 11.4621 6.80858C11.437 6.74788 11.4002 6.69272 11.3538 6.64625L8.85375 4.14625C8.80728 4.09983 8.75212 4.06303 8.69143 4.03793C8.63073 4.01284 8.56568 3.99995 8.5 4H5.5V3H10.2931L12.5 5.20688V12ZM9 10C9 10.1326 8.94732 10.2598 8.85355 10.3536C8.75979 10.4473 8.63261 10.5 8.5 10.5H5.5C5.36739 10.5 5.24021 10.4473 5.14645 10.3536C5.05268 10.2598 5 10.1326 5 10C5 9.86739 5.05268 9.74021 5.14645 9.64645C5.24021 9.55268 5.36739 9.5 5.5 9.5H8.5C8.63261 9.5 8.75979 9.55268 8.85355 9.64645C8.94732 9.74021 9 9.86739 9 10ZM9 12C9 12.1326 8.94732 12.2598 8.85355 12.3536C8.75979 12.4473 8.63261 12.5 8.5 12.5H5.5C5.36739 12.5 5.24021 12.4473 5.14645 12.3536C5.05268 12.2598 5 12.1326 5 12C5 11.8674 5.05268 11.7402 5.14645 11.6464C5.24021 11.5527 5.36739 11.5 5.5 11.5H8.5C8.63261 11.5 8.75979 11.5527 8.85355 11.6464C8.94732 11.7402 9 11.8674 9 12Z" fill="white"/>
</svg>
