<svg width="16" height="17" viewBox="0 0 16 17" fill="none" xmlns="http://www.w3.org/2000/svg">
<path d="M14 8.50003C14 8.63264 13.9473 8.75982 13.8536 8.85359C13.7598 8.94736 13.6326 9.00003 13.5 9.00003H8C7.86739 9.00003 7.74021 8.94736 7.64645 8.85359C7.55268 8.75982 7.5 8.63264 7.5 8.50003C7.5 8.36743 7.55268 8.24025 7.64645 8.14648C7.74021 8.05271 7.86739 8.00003 8 8.00003H13.5C13.6326 8.00003 13.7598 8.05271 13.8536 8.14648C13.9473 8.24025 14 8.36743 14 8.50003ZM8 5.00003H13.5C13.6326 5.00003 13.7598 4.94736 13.8536 4.85359C13.9473 4.75982 14 4.63264 14 4.50003C14 4.36743 13.9473 4.24025 13.8536 4.14648C13.7598 4.05271 13.6326 4.00003 13.5 4.00003H8C7.86739 4.00003 7.74021 4.05271 7.64645 4.14648C7.55268 4.24025 7.5 4.36743 7.5 4.50003C7.5 4.63264 7.55268 4.75982 7.64645 4.85359C7.74021 4.94736 7.86739 5.00003 8 5.00003ZM13.5 12H8C7.86739 12 7.74021 12.0527 7.64645 12.1465C7.55268 12.2402 7.5 12.3674 7.5 12.5C7.5 12.6326 7.55268 12.7598 7.64645 12.8536C7.74021 12.9474 7.86739 13 8 13H13.5C13.6326 13 13.7598 12.9474 13.8536 12.8536C13.9473 12.7598 14 12.6326 14 12.5C14 12.3674 13.9473 12.2402 13.8536 12.1465C13.7598 12.0527 13.6326 12 13.5 12ZM5.14625 3.14628L3.5 4.79316L2.85375 4.14628C2.75993 4.05246 2.63268 3.99976 2.5 3.99976C2.36732 3.99976 2.24007 4.05246 2.14625 4.14628C2.05243 4.2401 1.99972 4.36735 1.99972 4.50003C1.99972 4.63272 2.05243 4.75996 2.14625 4.85378L3.14625 5.85378C3.19269 5.90027 3.24783 5.93715 3.30853 5.96231C3.36923 5.98748 3.43429 6.00043 3.5 6.00043C3.56571 6.00043 3.63077 5.98748 3.69147 5.96231C3.75217 5.93715 3.80731 5.90027 3.85375 5.85378L5.85375 3.85378C5.94757 3.75996 6.00028 3.63272 6.00028 3.50003C6.00028 3.36735 5.94757 3.2401 5.85375 3.14628C5.75993 3.05246 5.63268 2.99976 5.5 2.99976C5.36732 2.99976 5.24007 3.05246 5.14625 3.14628ZM5.14625 7.14628L3.5 8.79316L2.85375 8.14628C2.75993 8.05246 2.63268 7.99976 2.5 7.99976C2.36732 7.99976 2.24007 8.05246 2.14625 8.14628C2.05243 8.2401 1.99972 8.36735 1.99972 8.50003C1.99972 8.56573 2.01266 8.63079 2.0378 8.69148C2.06294 8.75218 2.09979 8.80733 2.14625 8.85378L3.14625 9.85378C3.19269 9.90027 3.24783 9.93715 3.30853 9.96231C3.36923 9.98748 3.43429 10.0004 3.5 10.0004C3.56571 10.0004 3.63077 9.98748 3.69147 9.96231C3.75217 9.93715 3.80731 9.90027 3.85375 9.85378L5.85375 7.85378C5.94757 7.75996 6.00028 7.63272 6.00028 7.50003C6.00028 7.36735 5.94757 7.2401 5.85375 7.14628C5.75993 7.05246 5.63268 6.99976 5.5 6.99976C5.36732 6.99976 5.24007 7.05246 5.14625 7.14628ZM5.14625 11.1463L3.5 12.7932L2.85375 12.1463C2.80729 12.0998 2.75214 12.063 2.69145 12.0378C2.63075 12.0127 2.5657 11.9998 2.5 11.9998C2.4343 11.9998 2.36925 12.0127 2.30855 12.0378C2.24785 12.063 2.1927 12.0998 2.14625 12.1463C2.09979 12.1927 2.06294 12.2479 2.0378 12.3086C2.01266 12.3693 1.99972 12.4343 1.99972 12.5C1.99972 12.5657 2.01266 12.6308 2.0378 12.6915C2.06294 12.7522 2.09979 12.8073 2.14625 12.8538L3.14625 13.8538C3.19269 13.9003 3.24783 13.9372 3.30853 13.9623C3.36923 13.9875 3.43429 14.0004 3.5 14.0004C3.56571 14.0004 3.63077 13.9875 3.69147 13.9623C3.75217 13.9372 3.80731 13.9003 3.85375 13.8538L5.85375 11.8538C5.94757 11.76 6.00028 11.6327 6.00028 11.5C6.00028 11.3674 5.94757 11.2401 5.85375 11.1463C5.75993 11.0525 5.63268 10.9998 5.5 10.9998C5.36732 10.9998 5.24007 11.0525 5.14625 11.1463Z" fill="white"/>
</svg>
