<svg width="16" height="17" viewBox="0 0 16 17" fill="none" xmlns="http://www.w3.org/2000/svg">
<path d="M3 4.5C3 4.36739 3.05268 4.24021 3.14645 4.14645C3.24022 4.05268 3.36739 4 3.5 4H4.5V3C4.5 2.86739 4.55268 2.74021 4.64645 2.64645C4.74022 2.55268 4.86739 2.5 5 2.5C5.13261 2.5 5.25979 2.55268 5.35355 2.64645C5.44732 2.74021 5.5 2.86739 5.5 3V4H6.5C6.63261 4 6.75979 4.05268 6.85355 4.14645C6.94732 4.24021 7 4.36739 7 4.5C7 4.63261 6.94732 4.75979 6.85355 4.85355C6.75979 4.94732 6.63261 5 6.5 5H5.5V6C5.5 6.13261 5.44732 6.25979 5.35355 6.35355C5.25979 6.44732 5.13261 6.5 5 6.5C4.86739 6.5 4.74022 6.44732 4.64645 6.35355C4.55268 6.25979 4.5 6.13261 4.5 6V5H3.5C3.36739 5 3.24022 4.94732 3.14645 4.85355C3.05268 4.75979 3 4.63261 3 4.5ZM11.5 12.5H11V12C11 11.8674 10.9473 11.7402 10.8536 11.6464C10.7598 11.5527 10.6326 11.5 10.5 11.5C10.3674 11.5 10.2402 11.5527 10.1464 11.6464C10.0527 11.7402 10 11.8674 10 12V12.5H9.5C9.36739 12.5 9.24022 12.5527 9.14645 12.6464C9.05268 12.7402 9 12.8674 9 13C9 13.1326 9.05268 13.2598 9.14645 13.3536C9.24022 13.4473 9.36739 13.5 9.5 13.5H10V14C10 14.1326 10.0527 14.2598 10.1464 14.3536C10.2402 14.4473 10.3674 14.5 10.5 14.5C10.6326 14.5 10.7598 14.4473 10.8536 14.3536C10.9473 14.2598 11 14.1326 11 14V13.5H11.5C11.6326 13.5 11.7598 13.4473 11.8536 13.3536C11.9473 13.2598 12 13.1326 12 13C12 12.8674 11.9473 12.7402 11.8536 12.6464C11.7598 12.5527 11.6326 12.5 11.5 12.5ZM15 9.5H14V8.5C14 8.36739 13.9473 8.24021 13.8536 8.14645C13.7598 8.05268 13.6326 8 13.5 8C13.3674 8 13.2402 8.05268 13.1464 8.14645C13.0527 8.24021 13 8.36739 13 8.5V9.5H12C11.8674 9.5 11.7402 9.55268 11.6464 9.64645C11.5527 9.74021 11.5 9.86739 11.5 10C11.5 10.1326 11.5527 10.2598 11.6464 10.3536C11.7402 10.4473 11.8674 10.5 12 10.5H13V11.5C13 11.6326 13.0527 11.7598 13.1464 11.8536C13.2402 11.9473 13.3674 12 13.5 12C13.6326 12 13.7598 11.9473 13.8536 11.8536C13.9473 11.7598 14 11.6326 14 11.5V10.5H15C15.1326 10.5 15.2598 10.4473 15.3536 10.3536C15.4473 10.2598 15.5 10.1326 15.5 10C15.5 9.86739 15.4473 9.74021 15.3536 9.64645C15.2598 9.55268 15.1326 9.5 15 9.5ZM13.7069 5.5L5 14.2069C4.81248 14.3943 4.55823 14.4995 4.29313 14.4995C4.02802 14.4995 3.77377 14.3943 3.58625 14.2069L2.2925 12.9144C2.19962 12.8215 2.12594 12.7113 2.07567 12.5899C2.0254 12.4686 1.99953 12.3385 1.99953 12.2072C1.99953 12.0758 2.0254 11.9458 2.07567 11.8245C2.12594 11.7031 2.19962 11.5929 2.2925 11.5L11 2.79312C11.0929 2.70024 11.2031 2.62656 11.3245 2.57629C11.4458 2.52602 11.5758 2.50015 11.7072 2.50015C11.8385 2.50015 11.9686 2.52602 12.0899 2.57629C12.2113 2.62656 12.3215 2.70024 12.4144 2.79312L13.7069 4.08562C13.7998 4.17849 13.8734 4.28874 13.9237 4.41008C13.974 4.53142 13.9999 4.66147 13.9999 4.79281C13.9999 4.92415 13.974 5.05421 13.9237 5.17555C13.8734 5.29689 13.7998 5.40714 13.7069 5.5ZM10.2925 7.5L9 6.20687L3 12.2069L4.2925 13.5L10.2925 7.5ZM13 4.79313L11.7069 3.5L9.70688 5.5L11 6.79313L13 4.79313Z" fill="white"/>
</svg>
