<svg width="16" height="17" viewBox="0 0 16 17" fill="none" xmlns="http://www.w3.org/2000/svg">
<path d="M12.3487 8.56625L9.12498 7.375L7.93748 4.14875C7.86716 3.95771 7.73992 3.79283 7.57295 3.67637C7.40598 3.5599 7.2073 3.49746 7.00373 3.49746C6.80015 3.49746 6.60147 3.5599 6.4345 3.67637C6.26753 3.79283 6.1403 3.95771 6.06998 4.14875L4.87498 7.375L1.64873 8.5625C1.45768 8.63282 1.29281 8.76005 1.17634 8.92702C1.05988 9.094 0.997437 9.29267 0.997437 9.49625C0.997437 9.69983 1.05988 9.8985 1.17634 10.0655C1.29281 10.2324 1.45768 10.3597 1.64873 10.43L4.87498 11.625L6.06248 14.8512C6.1328 15.0423 6.26003 15.2072 6.427 15.3236C6.59397 15.4401 6.79265 15.5025 6.99623 15.5025C7.1998 15.5025 7.39848 15.4401 7.56545 15.3236C7.73242 15.2072 7.85965 15.0423 7.92998 14.8512L9.12498 11.625L12.3512 10.4375C12.5423 10.3672 12.7071 10.2399 12.8236 10.073C12.9401 9.906 13.0025 9.70733 13.0025 9.50375C13.0025 9.30017 12.9401 9.1015 12.8236 8.93452C12.7071 8.76755 12.5423 8.64032 12.3512 8.57L12.3487 8.56625ZM8.56248 10.7638C8.49461 10.7888 8.43297 10.8282 8.38183 10.8793C8.33068 10.9305 8.29124 10.9921 8.26623 11.06L6.99998 14.4906L5.73623 11.0625C5.71125 10.9939 5.67157 10.9316 5.61996 10.88C5.56835 10.8284 5.50606 10.7887 5.43748 10.7638L2.00935 9.5L5.43748 8.23625C5.50606 8.21128 5.56835 8.17159 5.61996 8.11998C5.67157 8.06837 5.71125 8.00608 5.73623 7.9375L6.99998 4.50938L8.26373 7.9375C8.28874 8.00537 8.32818 8.067 8.37933 8.11815C8.43047 8.1693 8.49211 8.20874 8.55998 8.23375L11.9906 9.5L8.56248 10.7638ZM8.99998 3C8.99998 2.86739 9.05266 2.74021 9.14642 2.64645C9.24019 2.55268 9.36737 2.5 9.49998 2.5H10.5V1.5C10.5 1.36739 10.5527 1.24021 10.6464 1.14645C10.7402 1.05268 10.8674 1 11 1C11.1326 1 11.2598 1.05268 11.3535 1.14645C11.4473 1.24021 11.5 1.36739 11.5 1.5V2.5H12.5C12.6326 2.5 12.7598 2.55268 12.8535 2.64645C12.9473 2.74021 13 2.86739 13 3C13 3.13261 12.9473 3.25979 12.8535 3.35355C12.7598 3.44732 12.6326 3.5 12.5 3.5H11.5V4.5C11.5 4.63261 11.4473 4.75979 11.3535 4.85355C11.2598 4.94732 11.1326 5 11 5C10.8674 5 10.7402 4.94732 10.6464 4.85355C10.5527 4.75979 10.5 4.63261 10.5 4.5V3.5H9.49998C9.36737 3.5 9.24019 3.44732 9.14642 3.35355C9.05266 3.25979 8.99998 3.13261 8.99998 3ZM15.5 6C15.5 6.13261 15.4473 6.25979 15.3535 6.35355C15.2598 6.44732 15.1326 6.5 15 6.5H14.5V7C14.5 7.13261 14.4473 7.25979 14.3535 7.35355C14.2598 7.44732 14.1326 7.5 14 7.5C13.8674 7.5 13.7402 7.44732 13.6464 7.35355C13.5527 7.25979 13.5 7.13261 13.5 7V6.5H13C12.8674 6.5 12.7402 6.44732 12.6464 6.35355C12.5527 6.25979 12.5 6.13261 12.5 6C12.5 5.86739 12.5527 5.74021 12.6464 5.64645C12.7402 5.55268 12.8674 5.5 13 5.5H13.5V5C13.5 4.86739 13.5527 4.74021 13.6464 4.64645C13.7402 4.55268 13.8674 4.5 14 4.5C14.1326 4.5 14.2598 4.55268 14.3535 4.64645C14.4473 4.74021 14.5 4.86739 14.5 5V5.5H15C15.1326 5.5 15.2598 5.55268 15.3535 5.64645C15.4473 5.74021 15.5 5.86739 15.5 6Z" fill="white"/>
</svg>
