<svg width="16" height="17" viewBox="0 0 16 17" fill="none" xmlns="http://www.w3.org/2000/svg">
<path d="M13.8669 5.6975C14.5607 7.14863 14.6924 8.80533 14.2366 10.3479C13.7808 11.8904 12.7697 13.2094 11.3986 14.0503C10.0274 14.8912 8.39342 15.1944 6.81186 14.9014C5.23031 14.6084 3.81335 13.74 2.83445 12.4637C1.85556 11.1874 1.38413 9.59372 1.51114 7.99027C1.63816 6.38683 2.35462 4.88727 3.52225 3.78101C4.68987 2.67474 6.22589 2.0402 7.83386 1.99985C9.44182 1.9595 11.0077 2.5162 12.2294 3.5625L13.6463 2.145C13.7401 2.05118 13.8673 1.99848 14 1.99848C14.1327 1.99848 14.2599 2.05118 14.3538 2.145C14.4476 2.23882 14.5003 2.36607 14.5003 2.49875C14.5003 2.63144 14.4476 2.75868 14.3538 2.8525L8.35375 8.8525C8.25993 8.94633 8.13268 8.99903 8 8.99903C7.86732 8.99903 7.74007 8.94633 7.64625 8.8525C7.55243 8.75868 7.49972 8.63144 7.49972 8.49875C7.49972 8.36607 7.55243 8.23882 7.64625 8.145L9.37875 6.4125C8.90922 6.10198 8.34863 5.959 7.78773 6.00672C7.22683 6.05444 6.69845 6.29007 6.28813 6.67546C5.87781 7.06084 5.60957 7.57343 5.52682 8.13024C5.44408 8.68705 5.55168 9.2555 5.8322 9.74355C6.11272 10.2316 6.54975 10.6107 7.07253 10.8194C7.59532 11.0282 8.17326 11.0544 8.7128 10.8939C9.25234 10.7333 9.72189 10.3953 10.0454 9.93466C10.369 9.47401 10.5276 8.91765 10.4956 8.35563C10.4919 8.28997 10.5012 8.22422 10.5229 8.16215C10.5446 8.10007 10.5784 8.04288 10.6222 7.99384C10.666 7.9448 10.7191 7.90487 10.7783 7.87633C10.8376 7.84779 10.9018 7.8312 10.9675 7.8275C11.1001 7.82005 11.2303 7.86557 11.3293 7.95406C11.3783 7.99788 11.4183 8.05093 11.4468 8.11018C11.4753 8.16943 11.4919 8.23372 11.4956 8.29938C11.5412 9.09487 11.314 9.8821 10.8516 10.531C10.3891 11.1798 9.71911 11.6515 8.95229 11.868C8.18547 12.0844 7.36774 12.0328 6.63425 11.7216C5.90075 11.4103 5.29541 10.8581 4.91826 10.1563C4.54112 9.45439 4.41475 8.64483 4.56004 7.86139C4.70533 7.07796 5.11359 6.36755 5.71734 5.84758C6.32108 5.32762 7.08418 5.02921 7.88049 5.0017C8.67681 4.97418 9.45868 5.2192 10.0969 5.69625L11.5188 4.27438C10.4768 3.40925 9.15186 2.95961 7.79854 3.0118C6.44521 3.064 5.15889 3.61436 4.18662 4.55717C3.21435 5.49999 2.62469 6.76878 2.5309 8.11985C2.43711 9.47093 2.8458 10.809 3.67848 11.8771C4.51115 12.9453 5.70909 13.6681 7.04222 13.9067C8.37535 14.1454 9.74967 13.8832 10.9012 13.1703C12.0527 12.4575 12.9003 11.3443 13.2811 10.0446C13.6619 8.7449 13.5491 7.35034 12.9644 6.12875C12.9072 6.00908 12.8999 5.87158 12.9441 5.74652C12.9883 5.62145 13.0803 5.51907 13.2 5.46188C13.3197 5.40469 13.4572 5.39739 13.5822 5.44158C13.7073 5.48577 13.8097 5.57783 13.8669 5.6975Z" fill="white"/>
</svg>
