<svg width="24" height="24" viewBox="0 0 24 24" fill="none" xmlns="http://www.w3.org/2000/svg">
<g opacity="0.4">
<path d="M20.1562 20.6109C20.0917 20.7286 19.9967 20.8267 19.8813 20.8951C19.7659 20.9636 19.6342 20.9998 19.5 21H15C14.8738 21 14.7496 20.9681 14.639 20.9073C14.5284 20.8465 14.4349 20.7587 14.3672 20.6522L10.5712 14.6869L5.055 20.7544C4.92053 20.8988 4.73454 20.9845 4.53735 20.9927C4.34017 21.0009 4.14769 20.9311 4.00163 20.7984C3.85558 20.6657 3.76773 20.4807 3.75713 20.2836C3.74653 20.0866 3.81403 19.8933 3.945 19.7456L9.73594 13.3706L3.86719 4.15313C3.79491 4.03973 3.75444 3.90898 3.75004 3.77458C3.74563 3.64018 3.77744 3.50707 3.84213 3.38918C3.90683 3.27129 4.00203 3.17296 4.11777 3.10449C4.23351 3.03603 4.36552 2.99993 4.5 3H9C9.12622 3.00004 9.2504 3.03194 9.36102 3.09274C9.47164 3.15353 9.56512 3.24127 9.63281 3.34781L13.4287 9.31312L18.945 3.24562C19.0795 3.10117 19.2655 3.01555 19.4626 3.00731C19.6598 2.99907 19.8523 3.06888 19.9984 3.20161C20.1444 3.33435 20.2323 3.51929 20.2429 3.71636C20.2535 3.91343 20.186 4.10674 20.055 4.25438L14.2641 10.6247L20.1328 19.8478C20.2047 19.9613 20.2448 20.0919 20.2489 20.2262C20.253 20.3604 20.221 20.4933 20.1562 20.6109Z" fill="white"/>
</g>
</svg>
