<svg width="24" height="24" viewBox="0 0 24 24" fill="none" xmlns="http://www.w3.org/2000/svg">
<g opacity="0.4">
<path d="M21.9684 6.5175C21.8801 6.17189 21.7109 5.85224 21.4747 5.58491C21.2385 5.31758 20.9421 5.11024 20.61 4.98C17.3962 3.73875 12.2812 3.75 12 3.75C11.7188 3.75 6.60375 3.73875 3.39 4.98C3.0579 5.11024 2.76153 5.31758 2.52534 5.58491C2.28915 5.85224 2.1199 6.17189 2.03156 6.5175C1.78875 7.45313 1.5 9.16313 1.5 12C1.5 14.8369 1.78875 16.5469 2.03156 17.4825C2.11977 17.8283 2.28895 18.1481 2.52515 18.4156C2.76136 18.6831 3.0578 18.8906 3.39 19.0209C6.46875 20.2088 11.2875 20.25 11.9381 20.25H12.0619C12.7125 20.25 17.5341 20.2088 20.61 19.0209C20.9422 18.8906 21.2386 18.6831 21.4748 18.4156C21.711 18.1481 21.8802 17.8283 21.9684 17.4825C22.2113 16.545 22.5 14.8369 22.5 12C22.5 9.16313 22.2113 7.45313 21.9684 6.5175ZM15.0553 12.6113L11.3053 15.2363C11.1931 15.3148 11.0616 15.3612 10.9249 15.3703C10.7883 15.3794 10.6517 15.351 10.5301 15.288C10.4085 15.225 10.3064 15.1299 10.235 15.013C10.1636 14.8962 10.1256 14.762 10.125 14.625V9.375C10.125 9.2378 10.1627 9.10324 10.2339 8.98597C10.3051 8.86869 10.4071 8.77319 10.5289 8.70987C10.6506 8.64655 10.7873 8.61783 10.9242 8.62683C11.0611 8.63584 11.1929 8.68222 11.3053 8.76094L15.0553 11.3859C15.154 11.4551 15.2345 11.547 15.2901 11.6539C15.3457 11.7608 15.3747 11.8795 15.3747 12C15.3747 12.1205 15.3457 12.2392 15.2901 12.3461C15.2345 12.453 15.154 12.5449 15.0553 12.6141V12.6113Z" fill="white"/>
</g>
</svg>
